<svg width="832" height="373" viewBox="0 0 832 373" fill="none" xmlns="http://www.w3.org/2000/svg">
<path d="M72.6 245.6H137.4V369.4H72.6V245.6Z" fill="white" stroke="#C14322" stroke-width="1.2"/>
<rect x="112.25" y="3.25" width="93.5" height="60.5" fill="white" stroke="#C14322" stroke-width="0.5"/>
<rect x="46.6" y="189.6" width="227.8" height="56.8" fill="white" stroke="#C14322" stroke-width="1.2"/>
<rect x="448.25" y="3.25" width="142.5" height="75.5" fill="white" stroke="#C14322" stroke-width="0.5"/>
<rect x="446.25" y="79.25" width="144.5" height="74.5" fill="white" stroke="#C14322" stroke-width="0.5"/>
<rect x="445.6" y="154.6" width="144.8" height="75.8" fill="white" stroke="#C14322" stroke-width="1.2"/>
<path d="M562 188H634" stroke="#9C9C9C" stroke-width="2"/>
<rect x="305.6" y="137.6" width="67.8" height="92.8" fill="white" stroke="#C14322" stroke-width="1.2"/>
<rect x="305.6" y="230.6" width="67.8" height="53.8" fill="white" stroke="#C14322" stroke-width="1.2"/>
<path d="M338 329V268" stroke="#9C9C9C" stroke-width="2"/>
<rect x="305.25" y="82.25" width="68.5" height="54.5" fill="white" stroke="#C14322" stroke-width="0.5"/>
<rect x="305.25" y="82.25" width="66.5" height="54.5" fill="white" stroke="#C14322" stroke-width="0.5"/>
<rect x="46.25" y="3.25" width="65.5" height="83.5" fill="white" stroke="#C14322" stroke-width="0.5"/>
<path d="M0 46H72" stroke="#9C9C9C" stroke-width="2"/>
<rect x="46.25" y="87.25" width="66.5" height="101.5" fill="white" stroke="#C14322" stroke-width="0.5"/>
<path d="M16 139H72" stroke="#9C9C9C" stroke-width="2"/>
<rect x="445.6" y="230.6" width="144.8" height="138.8" fill="white" stroke="#C14322" stroke-width="1.2"/>
<mask id="path-18-inside-1_530_2" fill="white">
<path fill-rule="evenodd" clip-rule="evenodd" d="M43 1C43 0.447715 43.4477 0 44 0H207C207.552 0 208 0.447715 208 1V63C208 63.5523 207.552 64 207 64H114C113.448 64 113 64.4477 113 65V185C113 185.552 113.448 186 114 186H275C275.552 186 276 186.448 276 187V202C276 202.552 276.448 203 277 203H304C304.552 203 305 202.552 305 202V82C305 81.4477 305.448 81 306 81H373C373.552 81 374 81.4477 374 82V202C374 202.552 374.448 203 375 203H444C444.552 203 445 202.552 445 202V0.999995C445 0.447711 445.448 0 446 0H592C592.552 0 593 0.447715 593 1V372C593 372.552 592.552 373 592 373H446C445.448 373 445 372.552 445 372V234C445 233.448 444.552 233 444 233H375C374.448 233 374 233.448 374 234V287C374 287.552 373.552 288 373 288H306C305.448 288 305 287.552 305 287V234C305 233.448 304.552 233 304 233H277C276.448 233 276 233.448 276 234V249C276 249.552 275.552 250 275 250H140C139.448 250 139 250.448 139 251V372C139 372.552 138.552 373 138 373H71C70.4477 373 70 372.552 70 372V251C70 250.448 69.5523 250 69 250H44C43.4477 250 43 249.552 43 249V186V64V54V1Z"/>
</mask>
<path d="M207 -3H44V3H207V-3ZM211 63V1H205V63H211ZM114 67H207V61H114V67ZM116 185V65H110V185H116ZM275 183H114V189H275V183ZM279 202V187H273V202H279ZM304 200H277V206H304V200ZM302 82V202H308V82H302ZM373 78H306V84H373V78ZM377 202V82H371V202H377ZM444 200H375V206H444V200ZM448 202V0.999995H442V202H448ZM446 3H592V-3H446V3ZM590 1V372H596V1H590ZM592 370H446V376H592V370ZM448 372V234H442V372H448ZM375 236H444V230H375V236ZM377 287V234H371V287H377ZM306 291H373V285H306V291ZM302 234V287H308V234H302ZM277 236H304V230H277V236ZM279 249V234H273V249H279ZM140 253H275V247H140V253ZM142 372V251H136V372H142ZM71 376H138V370H71V376ZM67 251V372H73V251H67ZM44 253H69V247H44V253ZM40 186V249H46V186H40ZM40 64V186H46V64H40ZM40 54V64H46V54H40ZM40 1V54H46V1H40ZM44 247C45.1046 247 46 247.895 46 249H40C40 251.209 41.7909 253 44 253V247ZM73 251C73 248.791 71.2091 247 69 247V253C67.8954 253 67 252.105 67 251H73ZM71 370C72.1046 370 73 370.895 73 372H67C67 374.209 68.7909 376 71 376V370ZM136 372C136 370.895 136.895 370 138 370V376C140.209 376 142 374.209 142 372H136ZM140 247C137.791 247 136 248.791 136 251H142C142 252.105 141.105 253 140 253V247ZM273 249C273 247.895 273.895 247 275 247V253C277.209 253 279 251.209 279 249H273ZM277 230C274.791 230 273 231.791 273 234H279C279 235.105 278.105 236 277 236V230ZM308 234C308 231.791 306.209 230 304 230V236C302.895 236 302 235.105 302 234H308ZM306 285C307.105 285 308 285.895 308 287H302C302 289.209 303.791 291 306 291V285ZM371 287C371 285.895 371.895 285 373 285V291C375.209 291 377 289.209 377 287H371ZM375 230C372.791 230 371 231.791 371 234H377C377 235.105 376.105 236 375 236V230ZM448 234C448 231.791 446.209 230 444 230V236C442.895 236 442 235.105 442 234H448ZM446 370C447.105 370 448 370.895 448 372H442C442 374.209 443.791 376 446 376V370ZM590 372C590 370.895 590.895 370 592 370V376C594.209 376 596 374.209 596 372H590ZM592 3C590.895 3 590 2.10458 590 1H596C596 -1.20915 594.209 -3 592 -3V3ZM448 0.999995C448 2.10458 447.105 3 446 3V-3C443.791 -3 442 -1.20916 442 0.999995H448ZM444 206C446.209 206 448 204.209 448 202H442C442 200.895 442.895 200 444 200V206ZM371 202C371 204.209 372.791 206 375 206V200C376.105 200 377 200.895 377 202H371ZM373 84C371.895 84 371 83.1046 371 82H377C377 79.7909 375.209 78 373 78V84ZM308 82C308 83.1046 307.105 84 306 84V78C303.791 78 302 79.7909 302 82H308ZM304 206C306.209 206 308 204.209 308 202H302C302 200.895 302.895 200 304 200V206ZM273 202C273 204.209 274.791 206 277 206V200C278.105 200 279 200.895 279 202H273ZM275 189C273.895 189 273 188.105 273 187H279C279 184.791 277.209 183 275 183V189ZM110 185C110 187.209 111.791 189 114 189V183C115.105 183 116 183.895 116 185H110ZM114 61C111.791 61 110 62.7909 110 65H116C116 66.1046 115.105 67 114 67V61ZM205 63C205 61.8954 205.895 61 207 61V67C209.209 67 211 65.2091 211 63H205ZM44 -3C41.7909 -3 40 -1.20914 40 1H46C46 2.10457 45.1046 3 44 3V-3ZM207 3C205.895 3 205 2.10457 205 1H211C211 -1.20914 209.209 -3 207 -3V3Z" fill="#C14322" mask="url(#path-18-inside-1_530_2)"/>
</svg>
